<svg viewBox="0 0 380 760" xmlns="http://www.w3.org/2000/svg" font-family="Helvetica, Arial, sans-serif">
  <rect width="380" height="760" rx="24" fill="#F7F5F0" stroke="#14213D" stroke-width="4"/>
  <rect x="0" y="0" width="380" height="150" rx="24" fill="#14213D"/>
  <rect x="0" y="126" width="380" height="24" fill="#14213D"/>
  <text x="24" y="46" font-size="14" fill="#C9D1E0">Hi Priya 👋</text>
  <text x="24" y="80" font-size="13" fill="#9AA5BD">Loyalty balance</text>
  <text x="24" y="116" font-size="34" font-weight="700" fill="#FB8B24">1,240 pts</text>
  <text x="230" y="116" font-size="12" fill="#9AA5BD">≈ ₹1,240 or 2 gifts</text>

  <!-- outstanding due -->
  <rect x="24" y="168" width="332" height="70" rx="10" fill="#FDEDED"/>
  <text x="40" y="192" font-size="12" fill="#B3282D">Outstanding due</text>
  <text x="40" y="216" font-size="20" font-weight="700" fill="#B3282D">₹3,450</text>
  <rect x="256" y="182" width="86" height="36" rx="18" fill="#E63946"/>
  <text x="299" y="205" text-anchor="middle" font-size="11" fill="#FFFFFF">Pay Now</text>

  <!-- QR card reminder -->
  <rect x="24" y="252" width="332" height="50" rx="10" fill="#EAF7F5"/>
  <text x="40" y="272" font-size="11" fill="#1D6E63">💳 Link your physical QR loyalty card</text>
  <text x="40" y="288" font-size="10" fill="#1D6E63">Tap here to scan and activate</text>

  <!-- redeem section -->
  <text x="24" y="332" font-size="14" font-weight="700" fill="#14213D">Redeem your points</text>
  <rect x="24" y="344" width="160" height="150" rx="10" fill="#FFFFFF" stroke="#E3DECB"/>
  <text x="40" y="368" font-size="12" font-weight="700" fill="#14213D">Cash discount</text>
  <text x="40" y="386" font-size="10" fill="#6B7280">1 pt = ₹1 off</text>
  <text x="40" y="404" font-size="10" fill="#6B7280">next bill</text>
  <rect x="40" y="464" width="128" height="24" rx="12" fill="#FB8B24"/>
  <text x="104" y="480" text-anchor="middle" font-size="10" fill="#FFF">Apply on next visit</text>

  <rect x="196" y="344" width="160" height="150" rx="10" fill="#FFFFFF" stroke="#E3DECB"/>
  <text x="212" y="368" font-size="12" font-weight="700" fill="#14213D">Gift catalog</text>
  <text x="212" y="386" font-size="10" fill="#6B7280">6 gifts available</text>
  <text x="212" y="404" font-size="10" fill="#6B7280">at your balance</text>
  <rect x="212" y="464" width="128" height="24" rx="12" fill="#2A9D8F"/>
  <text x="276" y="480" text-anchor="middle" font-size="10" fill="#FFF">Browse gifts →</text>

  <!-- recent bills -->
  <text x="24" y="530" font-size="14" font-weight="700" fill="#14213D">Recent bills</text>
  <line x1="24" y1="540" x2="356" y2="540" stroke="#EEE"/>
  <text x="24" y="562" font-size="11" fill="#333">Today, 10:42 AM · Nozzle 2</text>
  <text x="300" y="562" font-size="11" font-weight="700" fill="#14213D">₹2,250</text>
  <text x="24" y="584" font-size="10" fill="#9AA5BD">22.5L Petrol · +22.5 pts earned</text>
  <line x1="24" y1="600" x2="356" y2="600" stroke="#EEE"/>
  <text x="24" y="622" font-size="11" fill="#333">3 Jul, 6:10 PM · Nozzle 1</text>
  <text x="300" y="622" font-size="11" font-weight="700" fill="#14213D">₹1,800</text>
  <text x="24" y="644" font-size="10" fill="#9AA5BD">18L Diesel · +18 pts earned</text>

  <!-- bottom nav -->
  <rect x="0" y="696" width="380" height="64" fill="#FFFFFF" stroke="#EEE"/>
  <text x="70" y="732" text-anchor="middle" font-size="10" fill="#14213D">🏠 Home</text>
  <text x="160" y="732" text-anchor="middle" font-size="10" fill="#9AA5BD">📜 History</text>
  <text x="250" y="732" text-anchor="middle" font-size="10" fill="#9AA5BD">🎁 Rewards</text>
  <text x="330" y="732" text-anchor="middle" font-size="10" fill="#9AA5BD">👤 Profile</text>
</svg>
