<svg viewBox="0 0 380 760" xmlns="http://www.w3.org/2000/svg" font-family="Helvetica, Arial, sans-serif">
  <rect width="380" height="760" rx="24" fill="#F7F5F0" stroke="#14213D" stroke-width="4"/>
  <rect x="0" y="0" width="380" height="70" rx="24" fill="#14213D"/>
  <rect x="0" y="46" width="380" height="24" fill="#14213D"/>
  <text x="24" y="42" font-size="16" font-weight="700" fill="#FFFFFF">← Gift Catalog</text>
  <text x="24" y="94" font-size="12" fill="#6B7280">Your balance: </text>
  <text x="128" y="94" font-size="12" font-weight="700" fill="#FB8B24">1,240 pts</text>
  <text x="24" y="112" font-size="10" fill="#9AA5BD">Set by your pump dealer — updated anytime, no reprint needed</text>

  <!-- gift card 1 -->
  <rect x="24" y="132" width="332" height="96" rx="10" fill="#FFFFFF" stroke="#E3DECB"/>
  <rect x="36" y="144" width="72" height="72" rx="8" fill="#EAF7F5"/>
  <text x="72" y="188" text-anchor="middle" font-size="24">🧴</text>
  <text x="120" y="166" font-size="13" font-weight="700" fill="#14213D">Engine Oil, 1L</text>
  <text x="120" y="184" font-size="10" fill="#6B7280">Stock: 3 left at this pump</text>
  <text x="120" y="202" font-size="12" font-weight="700" fill="#2A9D8F">500 pts</text>
  <rect x="264" y="182" width="76" height="30" rx="15" fill="#2A9D8F"/>
  <text x="302" y="202" text-anchor="middle" font-size="10" fill="#FFF">Redeem</text>

  <!-- gift card 2 -->
  <rect x="24" y="238" width="332" height="96" rx="10" fill="#FFFFFF" stroke="#E3DECB"/>
  <rect x="36" y="250" width="72" height="72" rx="8" fill="#EAF7F5"/>
  <text x="72" y="294" text-anchor="middle" font-size="24">🧢</text>
  <text x="120" y="272" font-size="13" font-weight="700" fill="#14213D">Branded Cap</text>
  <text x="120" y="290" font-size="10" fill="#6B7280">Stock: 14 left at this pump</text>
  <text x="120" y="308" font-size="12" font-weight="700" fill="#2A9D8F">300 pts</text>
  <rect x="264" y="288" width="76" height="30" rx="15" fill="#2A9D8F"/>
  <text x="302" y="308" text-anchor="middle" font-size="10" fill="#FFF">Redeem</text>

  <!-- gift card 3 - locked -->
  <rect x="24" y="344" width="332" height="96" rx="10" fill="#FFFFFF" stroke="#E3DECB" opacity="0.6"/>
  <rect x="36" y="356" width="72" height="72" rx="8" fill="#F0EEE6"/>
  <text x="72" y="400" text-anchor="middle" font-size="24">🎒</text>
  <text x="120" y="378" font-size="13" font-weight="700" fill="#9AA5BD">Travel Bag</text>
  <text x="120" y="396" font-size="10" fill="#9AA5BD">Need 760 more points</text>
  <text x="120" y="414" font-size="12" font-weight="700" fill="#9AA5BD">2,000 pts</text>
  <rect x="264" y="394" width="76" height="30" rx="15" fill="#D8D3C4"/>
  <text x="302" y="414" text-anchor="middle" font-size="10" fill="#6B7280">Locked</text>

  <!-- redemption type toggle -->
  <rect x="24" y="460" width="332" height="90" rx="10" fill="#FFF4E6"/>
  <text x="40" y="484" font-size="12" font-weight="700" fill="#B3562E">Prefer cash discount instead?</text>
  <text x="40" y="502" font-size="10" fill="#B3562E">Your dealer allows both: gifts OR</text>
  <text x="40" y="518" font-size="10" fill="#B3562E">₹1 per point off your next bill.</text>
  <rect x="40" y="526" width="140" height="24" rx="12" fill="#FB8B24"/>
  <text x="110" y="542" text-anchor="middle" font-size="10" fill="#FFF">Switch to cash discount</text>
</svg>
