<svg viewBox="0 0 540 340" xmlns="http://www.w3.org/2000/svg" font-family="Helvetica, Arial, sans-serif">
  <rect width="540" height="340" fill="#F7F5F0"/>
  <rect x="20" y="20" width="500" height="300" rx="20" fill="#14213D"/>
  <rect x="20" y="20" width="500" height="70" rx="20" fill="#FB8B24"/>
  <rect x="20" y="70" width="500" height="20" fill="#FB8B24"/>
  <text x="44" y="62" font-size="20" font-weight="700" fill="#14213D">⛽ Sharma Fuel Point</text>
  <text x="44" y="80" font-size="10" fill="#5A3B14">Loyalty Member Card</text>

  <rect x="44" y="112" width="130" height="130" fill="#FFFFFF" rx="8"/>
  <g fill="#14213D">
    <rect x="56" y="124" width="14" height="14"/><rect x="84" y="124" width="14" height="14"/><rect x="140" y="124" width="14" height="14"/>
    <rect x="56" y="152" width="14" height="14"/><rect x="112" y="152" width="14" height="14"/><rect x="140" y="152" width="14" height="14"/>
    <rect x="70" y="166" width="14" height="14"/><rect x="98" y="166" width="14" height="14"/><rect x="126" y="166" width="14" height="14"/>
    <rect x="56" y="194" width="14" height="14"/><rect x="84" y="194" width="14" height="14"/><rect x="112" y="194" width="14" height="14"/><rect x="140" y="194" width="14" height="14"/>
    <rect x="70" y="222" width="14" height="14"/><rect x="126" y="222" width="14" height="14"/>
  </g>

  <text x="196" y="140" font-size="12" fill="#9AA5BD">MEMBER NAME</text>
  <text x="196" y="160" font-size="16" font-weight="700" fill="#FFFFFF">Priya Sharma</text>
  <text x="196" y="188" font-size="12" fill="#9AA5BD">VEHICLE NO.</text>
  <text x="196" y="208" font-size="16" font-weight="700" fill="#FFFFFF">RJ14 CD 5678</text>
  <text x="196" y="236" font-size="12" fill="#9AA5BD">MEMBER ID</text>
  <text x="196" y="256" font-size="14" font-weight="700" fill="#FB8B24">PUMP001-CUST-04521</text>

  <text x="270" y="300" text-anchor="middle" font-size="10" fill="#9AA5BD">QR encodes Member ID only — no balance or rate stored on the card.</text>
</svg>
